<svg width="428" height="926" viewBox="0 0 428 926" fill="none" xmlns="http://www.w3.org/2000/svg">
<g clip-path="url(#clip0_251_26)">
<rect width="428" height="926" fill="white"/>
<g filter="url(#filter0_f_251_26)">
<ellipse cx="274.943" cy="228.553" rx="274.943" ry="228.553" transform="matrix(0.325567 0.945519 -0.902341 0.431024 335.465 -57.7852)" fill="url(#paint0_linear_251_26)"/>
</g>
<path d="M181.668 283L180.948 283.99C180.108 285.07 179.538 286.24 179.238 287.5C178.998 288.76 178.878 290.68 178.878 293.26V301L177.978 301.36L173.298 298.93C170.358 300.85 167.058 301.81 163.398 301.81C157.398 301.81 152.628 299.86 149.088 295.96C145.608 292.06 143.868 286.81 143.868 280.21C143.868 273.43 145.758 268.06 149.538 264.1C153.378 260.14 158.538 258.16 165.018 258.16C169.158 258.16 172.518 258.97 175.098 260.59C177.738 262.15 179.058 264.22 179.058 266.8C179.058 269.32 178.008 271.3 175.908 272.74C173.808 274.18 171.168 274.9 167.988 274.9C168.828 273.88 169.488 272.8 169.968 271.66C170.448 270.46 170.688 268.93 170.688 267.07C170.688 265.03 170.088 263.41 168.888 262.21C167.688 260.95 166.188 260.32 164.388 260.32C161.028 260.32 158.328 262.15 156.288 265.81C154.308 269.41 153.318 274.21 153.318 280.21C153.318 283.75 153.828 286.93 154.848 289.75C155.928 292.51 157.398 294.67 159.258 296.23C161.118 297.79 163.248 298.57 165.648 298.57C167.448 298.57 169.188 298.24 170.868 297.58V289.48C170.868 288.1 170.748 287.11 170.508 286.51C170.268 285.85 169.818 285.34 169.158 284.98C168.498 284.56 167.418 284.14 165.918 283.72L166.458 282.01H180.948L181.668 283ZM192.818 295.87C192.818 297.67 193.388 298.57 194.528 298.57C195.668 298.57 196.778 298.12 197.858 297.22L198.578 298.12C196.478 300.58 193.868 301.81 190.748 301.81C188.648 301.81 187.118 301.33 186.158 300.37C185.198 299.35 184.718 297.76 184.718 295.6V262.57C184.718 261.73 184.328 261.31 183.548 261.31H180.668L180.398 260.41C181.538 259.33 183.008 258.49 184.808 257.89C186.668 257.23 188.498 256.9 190.298 256.9C191.078 256.9 191.678 257.08 192.098 257.44C192.578 257.74 192.818 258.19 192.818 258.79V295.87ZM196.965 286.51C196.965 281.77 198.315 278.02 201.015 275.26C203.775 272.5 207.495 271.12 212.175 271.12C216.855 271.12 220.575 272.53 223.335 275.35C226.095 278.11 227.475 281.83 227.475 286.51C227.475 291.19 226.095 294.91 223.335 297.67C220.575 300.43 216.855 301.81 212.175 301.81C207.495 301.81 203.775 300.43 201.015 297.67C198.315 294.91 196.965 291.19 196.965 286.51ZM218.385 286.69C218.385 282.67 217.815 279.4 216.675 276.88C215.535 274.3 214.095 273.01 212.355 273.01C210.435 273.01 208.875 274.27 207.675 276.79C206.475 279.25 205.875 282.49 205.875 286.51C205.875 290.59 206.415 293.83 207.495 296.23C208.635 298.63 210.135 299.83 211.995 299.83C213.855 299.83 215.385 298.63 216.585 296.23C217.785 293.77 218.385 290.59 218.385 286.69ZM241.674 301.81C238.794 301.81 236.544 300.88 234.924 299.02C233.364 297.1 232.284 294.04 231.684 289.84L229.794 276.88C229.734 276.4 229.614 276.07 229.434 275.89C229.254 275.71 228.984 275.62 228.624 275.62H226.194L225.924 274.63C227.124 273.55 228.564 272.71 230.244 272.11C231.924 271.45 233.574 271.12 235.194 271.12C236.094 271.12 236.724 271.39 237.084 271.93C237.504 272.47 237.834 273.52 238.074 275.08L240.414 291.28C240.834 294.22 241.314 296.23 241.854 297.31C242.394 298.39 243.204 298.93 244.284 298.93C245.964 298.93 247.284 297.91 248.244 295.87C249.264 293.77 249.774 291.01 249.774 287.59C249.774 284.11 249.324 280.54 248.424 276.88C248.304 276.4 248.184 276.07 248.064 275.89C247.944 275.71 247.674 275.62 247.254 275.62H244.914L244.644 274.63C245.784 273.55 247.194 272.71 248.874 272.11C250.554 271.45 252.234 271.12 253.914 271.12C254.754 271.12 255.384 271.42 255.804 272.02C256.224 272.56 256.524 273.58 256.704 275.08L258.954 290.83C259.434 294.07 259.944 296.23 260.484 297.31C261.084 298.39 261.804 298.93 262.644 298.93C264.264 298.93 265.554 297.73 266.514 295.33C267.534 292.87 268.044 289.69 268.044 285.79C268.044 283.15 267.774 280.87 267.234 278.95C266.754 276.97 265.944 275.23 264.804 273.73L264.084 272.74L264.714 272.02L272.274 271.12C272.454 273.46 272.544 275.53 272.544 277.33C272.544 285.01 271.434 291.01 269.214 295.33C267.054 299.65 263.934 301.81 259.854 301.81C257.394 301.81 255.534 301.18 254.274 299.92C253.014 298.66 251.964 296.35 251.124 292.99C249.924 298.87 246.774 301.81 241.674 301.81Z" fill="white"/>
</g>
<defs>
<filter id="filter0_f_251_26" x="-206.133" y="-177.388" width="849.756" height="956.156" filterUnits="userSpaceOnUse" color-interpolation-filters="sRGB">
<feFlood flood-opacity="0" result="BackgroundImageFix"/>
<feBlend mode="normal" in="SourceGraphic" in2="BackgroundImageFix" result="shape"/>
<feGaussianBlur stdDeviation="100" result="effect1_foregroundBlur_251_26"/>
</filter>
<linearGradient id="paint0_linear_251_26" x1="452.308" y1="91.0962" x2="329.751" y2="474.62" gradientUnits="userSpaceOnUse">
<stop stop-color="#00C2FF"/>
<stop offset="1" stop-color="#FF29C3"/>
</linearGradient>
<clipPath id="clip0_251_26">
<rect width="428" height="926" fill="white"/>
</clipPath>
</defs>
</svg>
